<svg width="56" height="22" viewBox="0 0 56 22" fill="none" xmlns="http://www.w3.org/2000/svg">
<path d="M39.3118 7.74208C36.1213 4.9277 35.4439 1.83697 35.0397 1.52703C34.5296 1.13581 15.3728 0.697451 14.2078 0.887642C10.375 1.51348 7.73738 3.1618 5.95865 5.16936C5.31693 5.89328 4.50737 7.46249 3.68081 7.5118C2.46264 7.58441 9.86 12.0141 15.8522 12.0141C25.8219 12.0146 42.9537 10.9553 39.3118 7.74208Z" fill="#CCCCCC"/>
<path d="M31.0496 0.666557C30.4243 0.666015 18.4817 0.666016 17.8125 0.666016C16.585 0.666016 15.5056 0.69961 14.3412 0.8898C13.4028 1.04314 12.3974 1.26097 11.5928 1.52431C15.2868 1.52431 30.6459 1.52431 35.0332 1.52485C34.5182 1.13418 33.0055 0.668183 31.0496 0.666557Z" fill="#F1F1F1"/>
<path d="M25.3548 12.6562C24.9808 12.6562 23.6101 12.6562 23.2366 12.6562C21.6262 12.6562 20.3203 14.7597 20.3203 17.3536C20.3203 19.9469 21.6262 22.0509 23.2366 22.0509C23.8207 22.0509 25.0142 22.0509 25.3548 22.0509C26.9652 22.0509 28.2705 19.9469 28.2705 17.3536C28.2705 14.7597 26.9652 12.6562 25.3548 12.6562Z" fill="#231F20"/>
<path d="M48.3361 12.6562C47.9621 12.6562 46.592 12.6562 46.2185 12.6562C44.6076 12.6562 43.3027 14.7597 43.3027 17.3536C43.3027 19.9469 44.6081 22.0509 46.2185 22.0509C46.8031 22.0509 47.9961 22.0509 48.3361 22.0509C49.947 22.0509 51.2519 19.9469 51.2519 17.3536C51.2524 14.7597 49.947 12.6562 48.3361 12.6562Z" fill="#231F20"/>
<path d="M11.7519 17.3399C11.7519 19.9343 10.4465 22.0367 8.8362 22.0367C5.90073 22.0367 5.91993 22.5531 5.91993 17.3399C5.91993 14.7461 7.22586 12.6426 8.8362 12.6426C10.4465 12.6426 11.7519 14.7461 11.7519 17.3399Z" fill="#231F20"/>
<path d="M34.1893 17.3921C34.1893 19.9865 32.8828 22.09 31.2741 22.09C28.3376 22.09 28.3584 22.6064 28.3584 17.3921C28.3584 14.7988 29.6627 12.6953 31.2741 12.6953C32.8828 12.6953 34.1893 14.7988 34.1893 17.3921Z" fill="#231F20"/>
<path d="M29.2362 10.4023C26.434 10.4023 24.3564 14.2164 25.1007 19.383H34.0354C33.8369 15.3701 32.039 10.4023 29.2362 10.4023Z" fill="#231F20"/>
<path d="M6.73002 10.4023C2.10687 10.4023 2.11729 16.8992 4.8926 19.383H13.1862C12.9871 15.3701 9.5333 10.4023 6.73002 10.4023Z" fill="#231F20"/>
<path d="M52.0202 12.4247L4.50964 9.31445C3.16806 9.31445 2.33327 10.3971 2.18957 11.2792L0.728962 14.4534C0.50573 16.2491 1.27196 17.4417 2.5214 18.0551L4.57491 19.2726C4.54694 19.2407 3.85311 18.0957 3.59478 17.064C2.9898 14.6501 2.96567 10.6772 6.50282 10.6772C9.06258 10.6772 10.6537 14.733 10.9554 17.7045C11.0448 18.5829 10.7832 20.2019 11.0327 20.2019C13.8739 20.2019 23.4125 20.2019 24.9384 20.2019C25.4989 20.2019 25.5927 19.9126 25.5927 19.3561C25.5927 16.4523 24.5149 10.4946 28.5293 10.4946C32.8601 10.4946 32.7526 16.6273 32.9363 19.2531C32.9807 19.8844 33.5188 20.2019 33.9296 20.2019C35.1429 20.2019 52.205 20.2019 52.205 20.2019C53.8285 20.2019 55.1695 19.0494 55.1695 17.0911L54.3413 14.39C54.3413 13.3047 53.1188 12.4247 52.0202 12.4247Z" fill="#58595B"/>
<path d="M54.2043 10.4432C53.9987 9.37628 45.303 7.45162 27.4615 6.29097C20.1738 5.81685 9.62544 7.20779 3.68046 7.51285C2.33997 7.58167 1.50408 8.59493 1.35983 9.47761L0.697268 14.1251C0.447709 16.1256 1.79204 16.894 2.8517 17.2055L3.71391 17.471C3.1786 15.1449 3.70185 11.4955 6.33565 11.4955C8.89596 11.4955 10.2776 14.6751 10.7575 17.0977C10.9292 17.9657 11.3197 18.4003 11.5698 18.4003C14.4109 18.4003 23.4115 18.4003 24.9374 18.4003C25.4979 18.4003 25.6213 18.111 25.5917 17.555C25.4069 14.059 26.1161 11.4765 28.3621 11.4765C30.9257 11.4765 32.4198 14.8268 32.6035 17.4515C32.6479 18.0828 33.0198 18.3998 33.4306 18.3998C34.951 18.3998 53.748 18.3998 53.748 18.3998C54.8466 18.3998 55.3337 17.8747 55.3337 16.4355C55.3337 16.4355 55.0611 14.7368 54.7961 13.1232C54.7731 12.9791 54.285 12.8609 54.144 12.0232C54.0102 11.2354 54.1983 10.4053 54.2043 10.4432Z" fill="#CCCCCC"/>
<path d="M54.2048 10.4426C54.4384 11.6466 53.2395 12.1641 47.1409 12.0769C37.4465 11.9382 31.8783 8.99048 17.8312 9.0788H1.5166C1.8786 8.20154 2.74136 7.47925 3.68091 7.51285H30.1994C36.994 7.55457 42.5682 7.71062 43.1112 7.7854C50.033 8.7396 54.0742 9.76479 54.2048 10.4426Z" fill="#F1F1F1"/>
<path d="M39.2516 11.1895L53.1084 11.1938V13.6262L40.597 13.6305C39.3887 13.637 38.2649 11.1835 39.2516 11.1895Z" fill="#58595B"/>
<path d="M35.1735 1.63281C35.1735 1.63281 23.9258 1.63281 21.575 1.63281C21.1988 1.63281 21.3798 1.87611 21.7006 2.056C22.8628 2.70785 25.1478 6.283 25.7012 7.08711C26.0616 7.61108 26.3325 7.78827 27.0439 7.78827C30.2635 7.78827 43.5132 7.78827 43.5132 7.78827C42.8934 6.85736 36.4526 2.12969 35.1735 1.63281Z" fill="#58595B"/>
<path d="M20.3527 2.64269C18.3458 1.62238 16.8956 1.39534 15.3341 1.48745C13.0733 1.62075 8.32397 3.65487 6.89956 5.70958C6.58364 6.16473 5.89639 7.28149 5.9134 7.78975C5.9134 7.78975 22.7232 7.74694 23.4335 7.78975C24.4861 7.85261 24.6654 7.61257 24.3972 7.01707C24.0796 6.30887 22.0014 3.48093 20.3527 2.64269Z" fill="#231F20"/>
<path d="M20.3407 2.28868C18.2801 1.24073 15.8689 1.50624 15.6671 1.50082C15.3386 1.885 14.1615 6.16022 14.1829 7.1957C14.4094 7.20491 20.4274 7.1957 22.3509 7.1957C23.6497 7.1957 24.7598 7.75923 24.5075 7.18269C23.9174 5.83511 21.9137 3.08845 20.3407 2.28868Z" fill="#58595B"/>
<path d="M14.3544 1.66406C12.6657 1.91169 9.89473 3.04416 8.28165 4.32402C8.0842 4.48062 7.20279 6.62636 7.22199 7.1953H12.7249C12.7051 6.88482 14.078 2.03306 14.3544 1.66406Z" fill="#58595B"/>
<path d="M6.71901 22.0361C8.32962 22.0361 9.63528 19.9333 9.63528 17.3394C9.63528 14.7454 8.32962 12.6426 6.71901 12.6426C5.1084 12.6426 3.80273 14.7454 3.80273 17.3394C3.80273 19.9333 5.1084 22.0361 6.71901 22.0361Z" fill="#58595B"/>
<path d="M6.58108 20.3418C7.6107 20.3418 8.44537 18.9974 8.44537 17.3389C8.44537 15.6804 7.6107 14.3359 6.58108 14.3359C5.55147 14.3359 4.7168 15.6804 4.7168 17.3389C4.7168 18.9974 5.55147 20.3418 6.58108 20.3418Z" fill="#808184"/>
<path d="M6.57985 20.6125C5.4604 20.6125 4.54883 19.1441 4.54883 17.3397C4.54883 15.5354 5.4604 14.0664 6.57985 14.0664C7.7004 14.0664 8.61197 15.5354 8.61197 17.3397C8.61197 19.1441 7.7004 20.6125 6.57985 20.6125ZM6.57985 14.6061C5.64414 14.6061 4.8834 15.8323 4.8834 17.3397C4.8834 18.8466 5.64469 20.0728 6.57985 20.0728C7.51666 20.0728 8.2774 18.8466 8.2774 17.3397C8.2774 15.8323 7.51611 14.6061 6.57985 14.6061Z" fill="#E6E7E8"/>
<path d="M5.25752 19.8512L5.13905 19.6605C4.75511 19.0422 4.54395 18.2208 4.54395 17.3468V17.0645L4.71123 17.0704H6.6364L6.81027 17.3495L5.25752 19.8512ZM4.88565 17.6096C4.91746 18.1498 5.04745 18.6586 5.263 19.0802L6.17622 17.6096H4.88565Z" fill="#E6E7E8"/>
<path d="M6.41211 20.6195V16.709L8.12831 19.4735L8.00983 19.6643C7.62754 20.2782 7.11965 20.6174 6.58049 20.6195H6.41211ZM6.74723 18.01V20.0652C7.07961 20.0121 7.39115 19.8046 7.65003 19.4638L6.74723 18.01Z" fill="#E6E7E8"/>
<path d="M8.61484 17.6168L8.4481 17.6109H6.52238L6.34961 17.3307L7.90181 14.8301L8.01973 15.0214C8.40367 15.6396 8.61484 16.4605 8.61484 17.3351V17.6168ZM6.98365 17.0717H8.27313C8.24187 16.532 8.11188 16.0227 7.89633 15.6017L6.98365 17.0717Z" fill="#E6E7E8"/>
<path d="M6.74647 17.9716L5.03027 15.2066L5.14875 15.0158C5.53104 14.4019 6.03893 14.0627 6.57863 14.0605H6.74647V17.9716ZM5.50965 15.2163L6.4119 16.6701V14.6149C6.07952 14.668 5.76798 14.8755 5.50965 15.2163Z" fill="#E6E7E8"/>
<path d="M6.58041 18.017C6.81305 18.017 7.00165 17.7132 7.00165 17.3386C7.00165 16.9639 6.81305 16.6602 6.58041 16.6602C6.34777 16.6602 6.15918 16.9639 6.15918 17.3386C6.15918 17.7132 6.34777 18.017 6.58041 18.017Z" fill="#58595B"/>
<path d="M29.154 22.0891C30.7643 22.0891 32.0697 19.9858 32.0697 17.3912C32.0697 14.7967 30.7643 12.6934 29.154 12.6934C27.5437 12.6934 26.2383 14.7967 26.2383 17.3912C26.2383 19.9858 27.5437 22.0891 29.154 22.0891Z" fill="#58595B"/>
<path d="M29.0166 20.3946C30.0463 20.3946 30.8809 19.0501 30.8809 17.3916C30.8809 15.7331 30.0463 14.3887 29.0166 14.3887C27.987 14.3887 27.1523 15.7331 27.1523 17.3916C27.1523 19.0501 27.987 20.3946 29.0166 20.3946Z" fill="#808184"/>
<path d="M29.0164 20.6656C27.8969 20.6656 26.9854 19.1983 26.9854 17.3928C26.9854 15.5884 27.8969 14.1211 29.0164 14.1211C30.1369 14.1211 31.049 15.5884 31.049 17.3928C31.049 19.1983 30.1369 20.6656 29.0164 20.6656ZM29.0164 14.6602C28.0807 14.6602 27.3199 15.8859 27.3199 17.3933C27.3199 18.9008 28.0807 20.1275 29.0164 20.1275C29.9532 20.1275 30.7145 18.9008 30.7145 17.3933C30.7145 15.8859 29.9532 14.6602 29.0164 14.6602Z" fill="#E6E7E8"/>
<path d="M27.694 19.9039L27.575 19.7132C27.1916 19.095 26.9805 18.273 26.9805 17.399V17.1172L27.1478 17.1231H29.0724L29.2473 17.4022L27.694 19.9039ZM27.3222 17.6618C27.354 18.202 27.484 18.7113 27.6995 19.1329L28.6127 17.6618H27.3222Z" fill="#E6E7E8"/>
<path d="M28.8486 20.6728V16.7617L30.5648 19.5263L30.4464 19.717C30.0635 20.3314 29.5573 20.6707 29.017 20.6723L28.8486 20.6728ZM29.1832 18.0627V20.1196C29.5156 20.0649 29.8277 19.8579 30.0855 19.5165L29.1832 18.0627Z" fill="#E6E7E8"/>
<path d="M31.0529 17.6682L30.884 17.6611H28.9593L28.7871 17.3821L30.3393 14.8809L30.4578 15.0721C30.8412 15.6904 31.0534 16.5124 31.0534 17.3864V17.6682H31.0529ZM29.4206 17.123H30.7112C30.6783 16.5823 30.5488 16.074 30.3338 15.6525L29.4206 17.123Z" fill="#E6E7E8"/>
<path d="M29.185 18.0233L27.4688 15.2588L27.5878 15.0675C27.9701 14.4541 28.4774 14.1154 29.0171 14.1138L29.185 14.1133V18.0233ZM27.9487 15.2691L28.8504 16.7218V14.6665C28.5185 14.7196 28.2065 14.9277 27.9487 15.2691Z" fill="#E6E7E8"/>
<path d="M29.0169 18.0697C29.2496 18.0697 29.4382 17.766 29.4382 17.3913C29.4382 17.0166 29.2496 16.7129 29.0169 16.7129C28.7843 16.7129 28.5957 17.0166 28.5957 17.3913C28.5957 17.766 28.7843 18.0697 29.0169 18.0697Z" fill="#58595B"/>
<path d="M12.8873 14.9725C12.5215 13.127 10.4532 10.2026 7.34822 10.2687C6.2551 10.2914 5.5854 10.7103 6.91766 10.7103C9.11927 10.7103 10.859 13.173 11.3395 15.5962C11.5112 16.4637 11.543 17.4304 12.1513 17.4304C12.7935 17.4304 23.9392 17.4304 24.3583 17.4304C24.8398 17.4304 25.0099 16.7812 24.7044 16.8013C23.5992 16.8733 14.2728 16.8061 13.6991 16.8061C13.0914 16.8056 13.059 15.8384 12.8873 14.9725Z" fill="#F1F1F1"/>
<path d="M41.44 13.6292C41.9155 13.6222 40.7659 11.1676 40.0809 11.1882C37.3697 11.27 34.8632 10.5027 32.8107 10.2372C32.1076 10.1467 32.0401 10.4892 32.4679 10.9514C33.3932 11.9462 34.646 12.8392 35.5762 13.1372C36.7664 13.5187 41.44 13.6292 41.44 13.6292Z" fill="white"/>
<path d="M52.7356 13.6294C52.5941 13.6294 52.8041 11.1867 52.9363 11.1926C53.5808 11.2214 54.2318 10.8339 54.2307 10.2374C54.2307 10.1761 55.0359 12.8675 54.8499 13.1374C54.4951 13.6516 53.4502 13.6294 52.7356 13.6294Z" fill="white"/>
<path d="M24.7552 7.12481C24.9203 7.51928 24.7393 7.91917 24.2955 7.91917H21.184C20.8034 7.91917 20.4951 7.61411 20.4951 7.23806V6.62197C20.4951 6.24593 20.8034 5.94141 21.184 5.94141H23.6642C24.035 5.94141 24.2473 6.09909 24.4678 6.50873C24.4919 6.55316 24.7305 7.06792 24.7552 7.12481Z" fill="#CCCCCC"/>
</svg>